<?xml version="1.0" encoding="utf-8"?>
<!-- Generator: Adobe Illustrator 26.0.0, SVG Export Plug-In . SVG Version: 6.00 Build 0)  -->
<svg version="1.1" id="Layer_1" xmlns="http://www.w3.org/2000/svg" xmlns:xlink="http://www.w3.org/1999/xlink" x="0px" y="0px"
	 viewBox="0 0 72 72" style="enable-background:new 0 0 72 72;" xml:space="preserve">
<g>
	<path style="fill:#FFFFFF;" d="M48.69,15.81c0,1.13,0.02,2.22,0,3.32c-0.09,4.2-1.82,5.99-6.01,6.02
		c-4.72,0.04-9.44,0.07-14.16-0.02c-3.19-0.07-4.88-1.75-5.19-4.91c-0.15-1.48-0.17-2.97-0.25-4.47c-3.71,0.39-6.08,2.06-6.47,5.32
		c-0.47,3.95-0.29,7.97-0.3,11.97c0,0.49,0.5,1.13,0.94,1.45c4.38,3.17,5.58,7.61,5.35,12.72c-0.11,2.39-0.02,4.79-0.02,7.06
		c9.29,0,17.95,0,26.8,0c0-2.94,0.09-5.6-0.02-8.26c-0.18-4.5,1.26-8.22,4.78-11.14c0.62-0.51,1.15-1.5,1.18-2.28
		c0.11-3.48,0.2-6.99-0.03-10.46C55.05,18.42,52.68,16.2,48.69,15.81z M50.71,55.6c-10.07,0-19.73,0-29.55,0
		c0-3.78,0.02-7.26-0.01-10.74c-0.03-3.87-1.6-7.01-4.86-9.08c-0.99-0.63-2.71-1.04-3.62-0.59c-0.9,0.45-1.65,2.11-1.67,3.25
		c-0.14,7.7-0.12,15.4-0.03,23.1c0.04,3.16,1.63,4.66,4.88,4.67c13.45,0.05,26.89,0.06,40.34,0c3.18-0.01,4.81-1.6,4.85-4.75
		c0.09-7.7,0.1-15.4-0.05-23.1c-0.02-1.13-0.85-2.77-1.76-3.2c-0.93-0.43-2.64,0.01-3.63,0.65c-3.34,2.17-4.85,5.46-4.88,9.42
		C50.69,48.6,50.71,51.98,50.71,55.6z M35.91,23.81c2.35,0,4.7,0.02,7.06-0.01c2.73-0.03,4.17-1.4,4.18-4.17
		c0.01-3.27,0.01-6.55,0-9.82c-0.01-2.6-1.3-4.03-3.93-4.05c-4.81-0.03-9.61-0.02-14.42,0c-2.8,0.01-4.07,1.55-4.07,4.26
		c0,3.17-0.06,6.34,0.02,9.51c0.07,2.94,1.39,4.18,4.42,4.25C31.41,23.85,33.66,23.81,35.91,23.81z"/>
	<path d="M48.69,15.81c3.99,0.39,6.37,2.61,6.61,6.33c0.22,3.48,0.14,6.98,0.03,10.46c-0.03,0.78-0.56,1.77-1.18,2.28
		c-3.52,2.92-4.96,6.64-4.78,11.14c0.1,2.66,0.02,5.32,0.02,8.26c-8.85,0-17.51,0-26.8,0c0-2.27-0.09-4.67,0.02-7.06
		c0.23-5.11-0.98-9.56-5.35-12.72c-0.44-0.32-0.94-0.96-0.94-1.45c0-3.99-0.17-8.02,0.3-11.97c0.39-3.27,2.77-4.93,6.47-5.32
		c0.08,1.5,0.1,2.99,0.25,4.47c0.31,3.16,2.01,4.84,5.19,4.91c4.72,0.1,9.44,0.07,14.16,0.02c4.18-0.04,5.92-1.82,6.01-6.02
		C48.7,18.03,48.69,16.94,48.69,15.81z M43.77,41.23c-5.22,3.13-10.45,3.04-15.67,0.01C32.59,46.01,38.99,46.44,43.77,41.23z
		 M43.71,31.6c-5.22,3.6-10.43,2.52-15.64,0.07C32.19,36.36,39.25,36.41,43.71,31.6z"/>
	<path d="M50.71,55.6c0-3.62-0.02-7,0.01-10.38c0.03-3.96,1.54-7.25,4.88-9.42c0.99-0.64,2.7-1.08,3.63-0.65
		c0.91,0.43,1.74,2.07,1.76,3.2c0.15,7.7,0.14,15.4,0.05,23.1c-0.04,3.14-1.67,4.74-4.85,4.75c-13.45,0.06-26.89,0.05-40.34,0
		c-3.25-0.01-4.84-1.51-4.88-4.67c-0.1-7.7-0.11-15.4,0.03-23.1c0.02-1.14,0.77-2.8,1.67-3.25c0.91-0.45,2.63-0.04,3.62,0.59
		c3.26,2.07,4.83,5.21,4.86,9.08c0.03,3.48,0.01,6.97,0.01,10.74C30.98,55.6,40.64,55.6,50.71,55.6z"/>
	<path d="M35.91,23.81c-2.25,0-4.5,0.04-6.75-0.01c-3.02-0.07-4.35-1.32-4.42-4.25c-0.08-3.17-0.02-6.34-0.02-9.51
		c0-2.71,1.27-4.25,4.07-4.26c4.81-0.02,9.61-0.03,14.42,0c2.64,0.02,3.92,1.45,3.93,4.05c0.01,3.27,0.01,6.55,0,9.82
		c-0.01,2.77-1.45,4.14-4.18,4.17C40.62,23.83,38.27,23.81,35.91,23.81z"/>
	<path style="fill:#FFFFFF;" d="M43.77,41.23c-4.79,5.21-11.18,4.78-15.67,0.01C33.33,44.27,38.55,44.36,43.77,41.23z"/>
	<path style="fill:#FFFFFF;" d="M43.71,31.6c-4.46,4.81-11.52,4.76-15.64,0.07C33.28,34.12,38.48,35.21,43.71,31.6z"/>
</g>
</svg>
